<svg width="78" height="78" viewBox="0 0 78 78" fill="none" xmlns="http://www.w3.org/2000/svg">
<path d="M39.0026 48.9987C44.5254 48.9987 49.0026 44.5215 49.0026 38.9987C49.0026 33.4758 44.5254 28.9987 39.0026 28.9987C33.4798 28.9987 29.0026 33.4758 29.0026 38.9987C29.0026 44.5215 33.4798 48.9987 39.0026 48.9987Z" stroke="#303030" stroke-width="4" stroke-linecap="round" stroke-linejoin="round"/>
<path d="M63.6693 48.9987C63.2255 50.0041 63.0932 51.1193 63.2892 52.2007C63.4853 53.282 64.0008 54.2798 64.7693 55.0654L64.9693 55.2654C65.5891 55.8845 66.0808 56.6198 66.4163 57.4291C66.7518 58.2384 66.9245 59.1059 66.9245 59.982C66.9245 60.8581 66.7518 61.7256 66.4163 62.535C66.0808 63.3443 65.5891 64.0795 64.9693 64.6987C64.3501 65.3185 63.6149 65.8103 62.8055 66.1458C61.9962 66.4813 61.1287 66.6539 60.2526 66.6539C59.3765 66.6539 58.509 66.4813 57.6997 66.1458C56.8903 65.8103 56.1551 65.3185 55.5359 64.6987L55.3359 64.4987C54.5503 63.7302 53.5525 63.2147 52.4712 63.0187C51.3899 62.8226 50.2747 62.955 49.2693 63.3987C48.2834 63.8212 47.4425 64.5228 46.8503 65.4171C46.258 66.3114 45.9402 67.3594 45.9359 68.432V68.9987C45.9359 70.7668 45.2336 72.4625 43.9833 73.7127C42.7331 74.963 41.0374 75.6654 39.2693 75.6654C37.5012 75.6654 35.8055 74.963 34.5552 73.7127C33.305 72.4625 32.6026 70.7668 32.6026 68.9987V68.6987C32.5768 67.5954 32.2197 66.5253 31.5776 65.6277C30.9356 64.73 30.0384 64.0463 29.0026 63.6654C27.9972 63.2216 26.882 63.0893 25.8006 63.2853C24.7193 63.4814 23.7215 63.9969 22.9359 64.7654L22.7359 64.9654C22.1168 65.5852 21.3815 66.0769 20.5722 66.4124C19.7629 66.7479 18.8954 66.9206 18.0193 66.9206C17.1432 66.9206 16.2757 66.7479 15.4663 66.4124C14.657 66.0769 13.9218 65.5852 13.3026 64.9654C12.6828 64.3462 12.191 63.6109 11.8555 62.8016C11.52 61.9923 11.3474 61.1248 11.3474 60.2487C11.3474 59.3726 11.52 58.5051 11.8555 57.6958C12.191 56.8864 12.6828 56.1512 13.3026 55.532L13.5026 55.332C14.2711 54.5464 14.7866 53.5486 14.9826 52.4673C15.1787 51.386 15.0463 50.2707 14.6026 49.2654C14.1801 48.2795 13.4785 47.4386 12.5842 46.8464C11.6899 46.2541 10.6419 45.9363 9.56927 45.932H9.0026C7.23449 45.932 5.5388 45.2296 4.28856 43.9794C3.03832 42.7292 2.33594 41.0335 2.33594 39.2654C2.33594 37.4973 3.03832 35.8016 4.28856 34.5513C5.5388 33.3011 7.23449 32.5987 9.0026 32.5987H9.3026C10.4059 32.5729 11.476 32.2158 12.3736 31.5737C13.2712 30.9317 13.955 30.0345 14.3359 28.9987C14.7797 27.9933 14.912 26.8781 14.716 25.7967C14.5199 24.7154 14.0044 23.7176 13.2359 22.932L13.0359 22.732C12.4161 22.1129 11.9244 21.3776 11.5889 20.5683C11.2534 19.759 11.0807 18.8915 11.0807 18.0154C11.0807 17.1393 11.2534 16.2717 11.5889 15.4624C11.9244 14.6531 12.4161 13.9179 13.0359 13.2987C13.6551 12.6789 14.3903 12.1871 15.1997 11.8516C16.009 11.5161 16.8765 11.3435 17.7526 11.3435C18.6287 11.3435 19.4962 11.5161 20.3055 11.8516C21.1149 12.1871 21.8501 12.6789 22.4693 13.2987L22.6693 13.4987C23.4549 14.2672 24.4527 14.7826 25.534 14.9787C26.6153 15.1748 27.7305 15.0424 28.7359 14.5987H29.0026C29.9885 14.1762 30.8293 13.4745 31.4216 12.5802C32.0138 11.6859 32.3317 10.638 32.3359 9.56536V8.9987C32.3359 7.23059 33.0383 5.53489 34.2886 4.28465C35.5388 3.03441 37.2345 2.33203 39.0026 2.33203C40.7707 2.33203 42.4664 3.03441 43.7166 4.28465C44.9669 5.53489 45.6693 7.23059 45.6693 8.9987V9.2987C45.6735 10.3713 45.9914 11.4193 46.5836 12.3136C47.1759 13.2079 48.0167 13.9095 49.0026 14.332C50.008 14.7757 51.1232 14.9081 52.2046 14.712C53.2859 14.516 54.2837 14.0005 55.0693 13.232L55.2693 13.032C55.8884 12.4122 56.6237 11.9205 57.433 11.585C58.2423 11.2495 59.1098 11.0768 59.9859 11.0768C60.862 11.0768 61.7295 11.2495 62.5389 11.585C63.3482 11.9205 64.0834 12.4122 64.7026 13.032C65.3224 13.6512 65.8142 14.3864 66.1497 15.1958C66.4852 16.0051 66.6578 16.8726 66.6578 17.7487C66.6578 18.6248 66.4852 19.4923 66.1497 20.3016C65.8142 21.111 65.3224 21.8462 64.7026 22.4654L64.5026 22.6654C63.7341 23.451 63.2186 24.4487 63.0226 25.5301C62.8265 26.6114 62.9589 27.7266 63.4026 28.732V28.9987C63.8251 29.9846 64.5267 30.8254 65.421 31.4177C66.3153 32.0099 67.3633 32.3278 68.4359 32.332H69.0026C70.7707 32.332 72.4664 33.0344 73.7166 34.2847C74.9669 35.5349 75.6693 37.2306 75.6693 38.9987C75.6693 40.7668 74.9669 42.4625 73.7166 43.7127C72.4664 44.963 70.7707 45.6654 69.0026 45.6654H68.7026C67.63 45.6696 66.582 45.9875 65.6877 46.5797C64.7934 47.172 64.0918 48.0128 63.6693 48.9987Z" stroke="#303030" stroke-width="4" stroke-linecap="round" stroke-linejoin="round"/>
</svg>
