<svg width="68" height="68" viewBox="0 0 68 68" fill="none" xmlns="http://www.w3.org/2000/svg">
<path d="M40.9966 17.0017C40.3858 17.6248 40.0437 18.4625 40.0437 19.3351C40.0437 20.2076 40.3858 21.0453 40.9966 21.6684L46.3299 27.0017C46.953 27.6125 47.7907 27.9546 48.6633 27.9546C49.5358 27.9546 50.3735 27.6125 50.9966 27.0017L63.5633 14.4351C65.2394 18.139 65.7469 22.2658 65.0181 26.2655C64.2894 30.2652 62.359 33.9479 59.4842 36.8227C56.6094 39.6974 52.9268 41.6278 48.9271 42.3566C44.9274 43.0853 40.8006 42.5778 37.0966 40.9017L14.0633 63.935C12.7372 65.2611 10.9386 66.0061 9.06325 66.0061C7.18789 66.0061 5.38934 65.2611 4.06325 63.935C2.73717 62.609 1.99219 60.8104 1.99219 58.935C1.99219 57.0597 2.73717 55.2611 4.06325 53.9351L27.0966 30.9017C25.4205 27.1978 24.913 23.0709 25.6417 19.0712C26.3705 15.0715 28.3009 11.3889 31.1757 8.51413C34.0504 5.63935 37.7331 3.70895 41.7328 2.9802C45.7325 2.25144 49.8593 2.75894 53.5633 4.43506L40.9966 17.0017Z" stroke="#2C2C2C" stroke-width="4" stroke-linecap="round" stroke-linejoin="round"/>
</svg>
